<mxfile host="Electron" agent="Mozilla/5.0 (Windows NT 10.0; Win64; x64) AppleWebKit/537.36 (KHTML, like Gecko) draw.io/28.0.6 Chrome/138.0.7204.100 Electron/37.2.3 Safari/537.36" version="28.0.6">
  <diagram name="Pagina-1" id="i0cYCqdF7t-xlVvop0i6">
    <mxGraphModel dx="786" dy="793" grid="1" gridSize="10" guides="1" tooltips="1" connect="1" arrows="1" fold="1" page="1" pageScale="1" pageWidth="827" pageHeight="1169" math="0" shadow="0">
      <root>
        <mxCell id="0" />
        <mxCell id="1" parent="0" />
        <mxCell id="3JOvcM3MWNWsr6VftqdK-74" value="" style="rounded=1;whiteSpace=wrap;html=1;fillColor=#fff2cc;strokeColor=#d6b656;fillStyle=hatch;" vertex="1" parent="1">
          <mxGeometry x="600" y="154.5" width="170" height="340" as="geometry" />
        </mxCell>
        <mxCell id="3JOvcM3MWNWsr6VftqdK-1" value="&lt;font style=&quot;font-size: 25px;&quot;&gt;&lt;b&gt;Data Flow Diagram&lt;/b&gt;&lt;/font&gt;" style="text;html=1;align=center;verticalAlign=middle;whiteSpace=wrap;rounded=0;" vertex="1" parent="1">
          <mxGeometry x="40" y="30" width="260" height="50" as="geometry" />
        </mxCell>
        <mxCell id="3JOvcM3MWNWsr6VftqdK-2" value="" style="rounded=0;whiteSpace=wrap;html=1;fillColor=none;dashed=1;dashPattern=1 2;" vertex="1" parent="1">
          <mxGeometry x="80" y="180" width="100" height="300" as="geometry" />
        </mxCell>
        <mxCell id="3JOvcM3MWNWsr6VftqdK-4" value="Source" style="rounded=1;whiteSpace=wrap;html=1;strokeColor=none;" vertex="1" parent="1">
          <mxGeometry x="95" y="170" width="70" height="20" as="geometry" />
        </mxCell>
        <mxCell id="3JOvcM3MWNWsr6VftqdK-80" value="" style="edgeStyle=orthogonalEdgeStyle;rounded=0;orthogonalLoop=1;jettySize=auto;html=1;" edge="1" parent="1" source="3JOvcM3MWNWsr6VftqdK-5" target="3JOvcM3MWNWsr6VftqdK-59">
          <mxGeometry relative="1" as="geometry" />
        </mxCell>
        <mxCell id="3JOvcM3MWNWsr6VftqdK-5" value="" style="image;aspect=fixed;html=1;points=[];align=center;fontSize=12;image=img/lib/azure2/general/File.svg;" vertex="1" parent="1">
          <mxGeometry x="102" y="284.5" width="56.00000000000001" height="69" as="geometry" />
        </mxCell>
        <mxCell id="3JOvcM3MWNWsr6VftqdK-6" value="&lt;b&gt;CSV&lt;/b&gt;" style="text;html=1;align=center;verticalAlign=middle;whiteSpace=wrap;rounded=0;" vertex="1" parent="1">
          <mxGeometry x="100" y="360" width="60" height="30" as="geometry" />
        </mxCell>
        <mxCell id="3JOvcM3MWNWsr6VftqdK-55" value="" style="rounded=1;whiteSpace=wrap;html=1;fillColor=#ffe6cc;strokeColor=#d79b00;fillStyle=hatch;" vertex="1" parent="1">
          <mxGeometry x="200" y="154.5" width="170" height="340" as="geometry" />
        </mxCell>
        <mxCell id="3JOvcM3MWNWsr6VftqdK-56" value="&lt;b&gt;Bronze Layer&lt;/b&gt;" style="rounded=1;whiteSpace=wrap;html=1;fillColor=#ffe6cc;strokeColor=#d79b00;" vertex="1" parent="1">
          <mxGeometry x="225" y="104.5" width="120" height="30" as="geometry" />
        </mxCell>
        <mxCell id="3JOvcM3MWNWsr6VftqdK-81" value="" style="edgeStyle=orthogonalEdgeStyle;rounded=0;orthogonalLoop=1;jettySize=auto;html=1;" edge="1" parent="1" source="3JOvcM3MWNWsr6VftqdK-59" target="3JOvcM3MWNWsr6VftqdK-72">
          <mxGeometry relative="1" as="geometry" />
        </mxCell>
        <mxCell id="3JOvcM3MWNWsr6VftqdK-59" value="&lt;b&gt;bronze_drug&lt;/b&gt;" style="rounded=1;whiteSpace=wrap;html=1;fillColor=#ffe6cc;strokeColor=#d79b00;" vertex="1" parent="1">
          <mxGeometry x="220" y="304.5" width="130" height="30" as="geometry" />
        </mxCell>
        <mxCell id="3JOvcM3MWNWsr6VftqdK-85" style="edgeStyle=orthogonalEdgeStyle;rounded=0;orthogonalLoop=1;jettySize=auto;html=1;exitX=1;exitY=0.5;exitDx=0;exitDy=0;entryX=0;entryY=0.5;entryDx=0;entryDy=0;" edge="1" parent="1" source="3JOvcM3MWNWsr6VftqdK-72" target="3JOvcM3MWNWsr6VftqdK-76">
          <mxGeometry relative="1" as="geometry" />
        </mxCell>
        <mxCell id="3JOvcM3MWNWsr6VftqdK-68" value="" style="rounded=1;whiteSpace=wrap;html=1;fillColor=#f5f5f5;strokeColor=#666666;fillStyle=hatch;fontColor=#333333;" vertex="1" parent="1">
          <mxGeometry x="400" y="154.5" width="170" height="340" as="geometry" />
        </mxCell>
        <mxCell id="3JOvcM3MWNWsr6VftqdK-69" value="&lt;b&gt;Silver Layer&lt;/b&gt;" style="rounded=1;whiteSpace=wrap;html=1;fillColor=#f5f5f5;strokeColor=#666666;fontColor=#333333;" vertex="1" parent="1">
          <mxGeometry x="425" y="104.5" width="120" height="30" as="geometry" />
        </mxCell>
        <mxCell id="3JOvcM3MWNWsr6VftqdK-82" value="" style="edgeStyle=orthogonalEdgeStyle;rounded=0;orthogonalLoop=1;jettySize=auto;html=1;entryX=0;entryY=0.5;entryDx=0;entryDy=0;" edge="1" parent="1" source="3JOvcM3MWNWsr6VftqdK-72" target="3JOvcM3MWNWsr6VftqdK-77">
          <mxGeometry relative="1" as="geometry" />
        </mxCell>
        <mxCell id="3JOvcM3MWNWsr6VftqdK-84" style="edgeStyle=orthogonalEdgeStyle;rounded=0;orthogonalLoop=1;jettySize=auto;html=1;" edge="1" parent="1" source="3JOvcM3MWNWsr6VftqdK-72" target="3JOvcM3MWNWsr6VftqdK-78">
          <mxGeometry relative="1" as="geometry" />
        </mxCell>
        <mxCell id="3JOvcM3MWNWsr6VftqdK-87" style="edgeStyle=orthogonalEdgeStyle;rounded=0;orthogonalLoop=1;jettySize=auto;html=1;entryX=0;entryY=0.5;entryDx=0;entryDy=0;" edge="1" parent="1" source="3JOvcM3MWNWsr6VftqdK-72" target="3JOvcM3MWNWsr6VftqdK-79">
          <mxGeometry relative="1" as="geometry" />
        </mxCell>
        <mxCell id="3JOvcM3MWNWsr6VftqdK-89" style="edgeStyle=orthogonalEdgeStyle;rounded=0;orthogonalLoop=1;jettySize=auto;html=1;entryX=0;entryY=0.5;entryDx=0;entryDy=0;" edge="1" parent="1" source="3JOvcM3MWNWsr6VftqdK-72" target="3JOvcM3MWNWsr6VftqdK-88">
          <mxGeometry relative="1" as="geometry" />
        </mxCell>
        <mxCell id="3JOvcM3MWNWsr6VftqdK-72" value="&lt;b&gt;silver_drug&lt;/b&gt;" style="rounded=1;whiteSpace=wrap;html=1;fillColor=#f5f5f5;strokeColor=#666666;fontColor=#333333;" vertex="1" parent="1">
          <mxGeometry x="420" y="304.5" width="130" height="30" as="geometry" />
        </mxCell>
        <mxCell id="3JOvcM3MWNWsr6VftqdK-75" value="&lt;b&gt;Gold Layer&lt;/b&gt;" style="rounded=1;whiteSpace=wrap;html=1;fillColor=#fff2cc;strokeColor=#d6b656;" vertex="1" parent="1">
          <mxGeometry x="625" y="104.5" width="120" height="30" as="geometry" />
        </mxCell>
        <mxCell id="3JOvcM3MWNWsr6VftqdK-76" value="&lt;b&gt;gold_dim_drug&lt;/b&gt;" style="rounded=1;whiteSpace=wrap;html=1;fillColor=#fff2cc;strokeColor=#d6b656;" vertex="1" parent="1">
          <mxGeometry x="620" y="183" width="130" height="30" as="geometry" />
        </mxCell>
        <mxCell id="3JOvcM3MWNWsr6VftqdK-77" value="&lt;b&gt;gold_&lt;/b&gt;&lt;b&gt;dim_condition&lt;/b&gt;" style="rounded=1;whiteSpace=wrap;html=1;fillColor=#fff2cc;strokeColor=#d6b656;" vertex="1" parent="1">
          <mxGeometry x="620" y="244" width="130" height="30" as="geometry" />
        </mxCell>
        <mxCell id="3JOvcM3MWNWsr6VftqdK-78" value="&lt;b&gt;gold_fact_review&lt;/b&gt;" style="rounded=1;whiteSpace=wrap;html=1;fillColor=#fff2cc;strokeColor=#d6b656;" vertex="1" parent="1">
          <mxGeometry x="620" y="304" width="130" height="30" as="geometry" />
        </mxCell>
        <mxCell id="3JOvcM3MWNWsr6VftqdK-79" value="&lt;b&gt;gold_dim_date&lt;/b&gt;" style="rounded=1;whiteSpace=wrap;html=1;fillColor=#fff2cc;strokeColor=#d6b656;" vertex="1" parent="1">
          <mxGeometry x="620" y="362" width="130" height="30" as="geometry" />
        </mxCell>
        <mxCell id="3JOvcM3MWNWsr6VftqdK-88" value="&lt;b&gt;gold_dim_review_txt&lt;/b&gt;" style="rounded=1;whiteSpace=wrap;html=1;fillColor=#fff2cc;strokeColor=#d6b656;" vertex="1" parent="1">
          <mxGeometry x="620" y="423" width="130" height="30" as="geometry" />
        </mxCell>
      </root>
    </mxGraphModel>
  </diagram>
</mxfile>
